PathFileType	4	(X/Y/Z)	C:/Users/beibeiliu/ov580/test_trc\sequence.10_training_dense_left.trc
DataRate	CameraRate	NumFrames	NumMarkers	Units	OrigDataRate	OrigDataStartFrame	OrigNumFrames
120	120	15	19	mm	120	76	302
Frame#	Time	ThumbCMC			ThumbMCP			ThumbIP			ThumbTip			IndexMCP			IndexPIP			IndexTip			MiddleMCP			MiddlePIP			MiddleTip			RingMCP			RingPIP			RingTip			PinkyMCP			PinkyPIP			PinkyTip			BackHand1			BackHand2			BackHand3	
		X0	Y0	Z0	X1	Y1	Z1	X2	Y2	Z2	X3	Y3	Z3	X4	Y4	Z4	X5	Y5	Z5	X6	Y6	Z6	X7	Y7	Z7	X8	Y8	Z8	X9	Y9	Z9	X10	Y10	Z10	X11	Y11	Z11	X12	Y12	Z12	X13	Y13	Z13	X14	Y14	Z14	X15	Y15	Z15	X16	Y16	Z16	X17	Y17	Z17	X18	Y18	Z18	
75	0.625	-137.408	-5.11966	-3.7274	-125.552	-6.02515	-28.0004	-121.885	-3.21049	-50.8072	-122.845	-4.98791	-72.2126	-149.926	17.93	-67.2937	-152.247	24.24	-89.8637	-149.374	33.3257	-107.399	-163.548	24.5649	-73.5655	-167.596	31.2044	-92.271	-167.878	45.8893	-113.496	-183.089	22.9963	-65.9679	-179.753	30.4405	-84.819	-182.56	42.3568	-104.474	-196.136	16.863	-51.5633	-198.188	25.2649	-67.8277	-191.248	34.7553	-85.6018	-178.618	20.1126	-26.1901	-177.749	20.1847	4.13154	-155.931	18.6149	-10.4202	
76	0.633333	-136.925	-8.51078	-7.68877	-124.484	-12.0489	-29.1496	-126.463	-8.47315	-53.5271	-122.917	-10.6231	-75.2602	-143.134	12.5196	-68.6942	-145.589	19.6659	-90.6443	-149.939	28.6147	-108.312	-162.232	23.042	-77.4072	-165.976	29.7628	-94.7162	-163.281	40.619	-113.309	-177.656	21.9582	-66.9116	-181.554	31.4041	-87.9789	-181.464	38.344	-103.599	-196.201	21.5096	-54.2564	-195.674	27.0163	-69.0879	-190.381	38.043	-89.2331	-178.089	19.2803	-23.2136	-178.935	23.0556	-1.54778	-153.465	17.472	-16.8006	
77	0.641667	-141.364	-11.4068	-7.04189	-128.157	-15.1089	-31.3929	-125.005	-15.4576	-55.7767	-125.841	-16.4966	-75.254	-146.154	10.3174	-70.6431	-146.798	16.8028	-92.6025	-149.206	26.9882	-112.045	-159.635	20.0807	-77.6821	-162.019	25.0726	-95.315	-164.554	38.227	-115.734	-178.254	22.2617	-70.1242	-180.409	30.4634	-90.7971	-178.424	39.4863	-108.13	-191.63	22.8904	-56.3151	-191.559	28.8884	-73.0365	-187.432	33.7855	-88.6507	-176.305	23.2885	-26.4957	-175.728	21.8217	-1.07209	-152.127	15.8394	-18.1284	
78	0.65	-137.916	-16.3088	-7.70534	-128.511	-19.1714	-34.6835	-128.56	-19.9557	-56.6015	-132.461	-20.0522	-77.185	-145.888	6.47769	-74.9227	-145.668	11.1526	-93.0994	-148.136	19.9538	-112.252	-162.875	18.7106	-76.2144	-161.813	25.23	-100.774	-159.945	35.1894	-118.183	-176.356	21.4484	-68.0173	-179.04	30.361	-90.043	-176.777	36.079	-105.772	-191.21	21.563	-53.7715	-189.273	29.8263	-75.454	-185.94	36.361	-90.2784	-172.286	19.1787	-25.2894	-171.198	20.9109	-3.58726	-147.944	9.77097	-18.3524	
79	0.658333	-139.695	-18.6482	-11.1848	-128.753	-25.3536	-35.3677	-127.718	-26.2365	-60.3036	-133.084	-26.3737	-80.3683	-147.065	2.71556	-74.5459	-149.529	9.71087	-98.6779	-147.821	15.5106	-114.688	-161.667	16.5212	-79.85	-160.581	19.9258	-98.7032	-162.061	32.7295	-118.616	-173.372	21.974	-73.9606	-177.337	28.2756	-91.0231	-173.496	34.0424	-107.846	-188.253	23.8804	-56.0619	-188.814	29.9824	-72.0514	-184.955	35.0924	-89.9454	-171.175	20.0112	-26.1671	-164.664	21.8789	-5.37543	-145.14	9.2291	-20.5441	
80	0.666667	-140.932	-21.0222	-12.6399	-128.563	-32.2115	-34.8425	-132.141	-28.3994	-60.2238	-137.182	-30.8887	-79.3255	-146.385	0.464822	-79.9025	-150.153	5.98571	-100.583	-148.434	10.6464	-120.86	-160.186	13.5991	-81.6628	-160.813	19.9987	-102.053	-159.117	28.3061	-120.847	-171.531	18.1512	-72.2498	-172.601	22.9308	-90.8429	-170.06	31.5781	-112.435	-187.425	27.3433	-58.9804	-184.171	26.7329	-73.9212	-183.081	35.2973	-91.4637	-167.545	22.6694	-32.5905	-160.508	18.3873	-5.77628	-143.045	5.4709	-21.1166	
81	0.675	-136.725	-27.4353	-12.7247	-129.961	-35.6511	-38.4432	-132.051	-34.0834	-62.6392	-139.153	-35.6798	-81.221	-145.305	-5.62637	-79.1292	-149.932	1.26068	-98.4586	-152.113	8.66484	-121.202	-155.596	8.46038	-84.1357	-155.724	14.0539	-103.712	-158.441	28.3266	-122.048	-170.741	18.1023	-72.7833	-172.058	24.4026	-90.9368	-167.087	30.9625	-113.833	-180.49	23.3061	-61.0793	-180.028	27.4102	-76.2191	-180.931	36.3628	-94.3734	-164.097	20.2134	-30.809	-159.879	19.7405	-7.39335	-141.406	1.86186	-23.6063	
82	0.683333	-136.146	-30.5331	-14.4683	-131.959	-40.4729	-36.3627	-135.797	-38.4265	-64.3443	-143.162	-36.2291	-82.7543	-142.733	-9.88908	-81.3723	-146.98	-4.98399	-100.413	-151.443	4.17349	-119.971	-153.681	5.75888	-81.6738	-154.953	12.2833	-106.641	-154.785	24.6587	-124.868	-165.548	16.8513	-74.5438	-168.274	23.324	-92.4383	-163.011	26.4444	-113.106	-177.147	22.8625	-56.4094	-176.435	28.6992	-75.4438	-176.28	33.3157	-93.1478	-155.467	15.684	-34.8543	-149.577	15.6734	-8.43319	-136.513	-0.62054	-22.9301	
83	0.691667	-136.807	-34.8188	-12.7765	-130.699	-47.8333	-39.8272	-136.451	-42.9185	-63.3259	-144.251	-42.0474	-84.6881	-141.527	-15.5714	-81.0988	-146.795	-8.13291	-101.575	-148.257	-1.10893	-121.011	-151.43	5.13057	-86.0289	-154.164	10.043	-104.883	-152.467	19.4307	-123.601	-160.721	13.3898	-73.8511	-162.923	19.3621	-92.956	-160.624	26.2243	-113.822	-172.155	23.555	-57.496	-172.55	28.3809	-75.0384	-168.511	29.0978	-96.3471	-152.534	14.5003	-34.3593	-146.362	14.2453	-8.42077	-132.081	-6.68442	-26.1441	
84	0.7	-132.303	-39.5798	-16.8118	-130.488	-51.513	-42.1583	-133.932	-50.9054	-66.6834	-143.819	-47.1897	-84.2935	-138.72	-19.6812	-80.8658	-145.912	-10.8976	-104.115	-145.07	-7.48433	-121.168	-146.379	-2.83813	-87.6114	-149.256	4.7553	-103.319	-145.522	12.7315	-125.954	-155.719	11.8165	-75.6157	-156.263	14.7793	-97.6741	-154.184	20.0543	-116.35	-162.458	19.2056	-60.5581	-165.335	25.6158	-76.6855	-161.01	25.4329	-95.84	-144.452	12.9474	-35.2532	-138.455	8.66238	-7.25512	-126.753	-12.6522	-26.7662	
85	0.708333	-131.928	-44.8147	-14.6536	-132.069	-53.0531	-41.3633	-137.115	-50.7462	-63.5018	-144.188	-48.2812	-84.8861	-138.372	-22.1444	-82.2326	-143.549	-17.1116	-99.1973	-144.728	-10.2986	-121.142	-142.139	-6.95461	-85.196	-144.934	-1.61368	-107.38	-142.86	6.54084	-125.422	-150.942	10.0621	-75.8431	-150.707	9.30007	-96.3381	-150.34	18.0407	-116.587	-156.87	20.9139	-61.9531	-157.932	20.8498	-76.9755	-155.873	25.3375	-99.7612	-139.85	8.69863	-32.6856	-131.608	4.38804	-11.5146	-123.189	-18.1406	-23.9019	
86	0.716667	-130.402	-45.9268	-13.5749	-130.687	-57.786	-41.2079	-135.023	-57.8769	-63.3683	-144.355	-49.2698	-86.9223	-136.612	-25.4819	-79.9666	-139.535	-22.4155	-102.766	-142.572	-14.3785	-123.998	-140.986	-7.09323	-82.9299	-143.57	-5.52486	-103.514	-139.542	5.96924	-128.463	-146.862	4.1988	-75.7985	-148.193	9.24347	-98.4008	-146.948	13.1504	-113.356	-151.473	14.556	-59.9069	-152.124	15.3806	-80.4741	-152.054	22.1301	-97.1549	-135.588	4.99608	-31.0942	-125.095	1.03981	-12.3807	-118.249	-22.0242	-25.8071	
87	0.725	-128.161	-50.372	-14.2714	-129.422	-62.5973	-42.0701	-135.449	-55.6569	-63.3441	-143.701	-54.8219	-85.2708	-134.71	-27.8795	-82.8337	-139.522	-23.2401	-101.169	-141.954	-17.3605	-123.525	-137.517	-12.5807	-86.8702	-140.356	-9.74236	-105.554	-139.525	-0.909478	-125.628	-143.486	5.07638	-75.083	-144.773	4.95179	-95.4527	-143.66	9.91579	-115.905	-147.842	12.9393	-59.3836	-149.157	17.6875	-80.0301	-149.259	20.4789	-96.6452	-129.08	3.08992	-32.9761	-120.797	-0.750362	-8.11799	-115.794	-24.4449	-26.4884	
88	0.733333	-125.516	-52.4583	-16.8765	-127.842	-63.7991	-40.6516	-133.527	-61.6907	-68.0927	-144.776	-53.4391	-85.1487	-134.031	-30.8907	-80.3275	-138.845	-26.1059	-105.449	-141.721	-18.2951	-121.442	-137.12	-10.8277	-88.1521	-140.006	-7.85315	-107.689	-138.043	-3.60276	-126.117	-141.637	3.6002	-73.5264	-143.356	3.35391	-94.3456	-142.652	9.15106	-114.028	-143.708	11.3626	-59.8744	-146.001	13.8647	-77.1772	-146.341	20.553	-94.7247	-124.361	-2.21729	-32.8946	-116.276	-2.86127	-11.2832	-115.151	-28.8095	-31.531	
89	0.741667	-123.914	-53.4535	-16.94	-125.54	-65.7537	-40.266	-132.809	-62.5629	-64.4447	-141.743	-62.106	-81.2285	-132.891	-33.4312	-81.5172	-138.01	-28.088	-104.715	-139.112	-24.0018	-126.191	-134.386	-13.9114	-88.198	-137.208	-12.9541	-108.211	-135.632	-3.56576	-127.627	-137.533	-1.2131	-76.1493	-139.586	3.6191	-95.287	-140.001	5.04583	-115.126	-140.994	12.806	-57.7903	-142.963	13.2066	-78.6938	-143.543	14.6303	-99.2777	-122.69	-1.81302	-33.8854	-112.485	-4.16613	-11.386	-111.565	-31.3363	-31.6442	
